<?xml version="1.0" encoding="utf-8"?>
<!-- Generator: Adobe Illustrator 25.4.1, SVG Export Plug-In . SVG Version: 6.00 Build 0)  -->
<svg version="1.1" id="Calque_1" xmlns="http://www.w3.org/2000/svg" xmlns:xlink="http://www.w3.org/1999/xlink" x="0px" y="0px"
	 viewBox="0 0 100 100" style="enable-background:new 0 0 100 100;" xml:space="preserve">
<g>
	<path d="M50,100c-2,0-4-0.5-5.8-1.5l-35-19.2C5.4,77.2,3,73.2,3,68.8V31.2c0-4.4,2.4-8.4,6.2-10.5l35-19.2c3.6-2,7.9-2,11.5,0
		l35,19.2c3.8,2.1,6.2,6.1,6.2,10.5v37.6c0,4.4-2.4,8.4-6.2,10.5l-35,19.2C54,99.5,52,100,50,100z M50,4c-1.3,0-2.6,0.3-3.9,1
		l-35,19.2c-2.6,1.4-4.1,4.1-4.1,7v37.6c0,2.9,1.6,5.6,4.1,7l35,19.2c2.4,1.3,5.3,1.3,7.7,0l35-19.2c2.6-1.4,4.2-4.1,4.2-7V31.2
		c0-2.9-1.6-5.6-4.2-7L53.8,5C52.6,4.3,51.3,4,50,4z"/>
</g>
<g transform="translate(-1281.887 -437.632)">
	<g transform="matrix(-0.017, 1, -1, -0.017, 1366.742, 503.043)">
		<path d="M-20.5,45.9C-20.5,46-20.5,46-20.5,45.9c0,3.3-2.6,5.9-5.8,5.9s-5.8-2.6-5.8-5.7V46c0-3.2,2.6-5.8,5.8-5.8l0,0
			C-23.1,40.2-20.5,42.8-20.5,45.9z M-28.1,46.1c0,1,0.8,1.8,1.8,1.8s1.8-0.8,1.8-1.8s-0.8-1.8-1.8-1.8l0,0
			C-27.3,44.2-28.1,45-28.1,46.1L-28.1,46.1z M-26.3,42.2L-26.3,42.2L-26.3,42.2z"/>
	</g>
	<g transform="matrix(-0.017, 1, -1, -0.017, 1402.953, 509.703)">
		<path d="M-26,62.9L-26,62.9c0,2.6-2.1,4.7-4.6,4.7c-1.2,0-2.4-0.5-3.2-1.3c-0.9-0.9-1.3-2-1.3-3.2s0.5-2.4,1.3-3.2
			c0.9-0.9,2-1.3,3.2-1.3C-28.1,58.4-26,60.4-26,62.9z M-31.1,63c0,0.2,0.1,0.3,0.2,0.4c0.1,0.1,0.2,0.2,0.4,0.2
			c0.3,0,0.6-0.3,0.6-0.6s-0.3-0.6-0.6-0.6c-0.2,0-0.3,0.1-0.4,0.2C-31.1,62.6-31.1,62.8-31.1,63L-31.1,63z"/>
	</g>
	<g transform="matrix(-0.017, 1, -1, -0.017, 1398.852, 558.191)">
		<path d="M-50.3,61.2C-50.3,61.3-50.3,61.3-50.3,61.2c0,1.3-0.5,2.5-1.3,3.3c-0.9,0.9-2,1.3-3.2,1.3s-2.4-0.5-3.2-1.3
			c-0.9-0.9-1.3-2-1.3-3.2s0.5-2.4,1.3-3.2c0.9-0.9,2-1.3,3.2-1.3l0,0c1.2,0,2.4,0.5,3.2,1.3C-50.8,58.9-50.3,60-50.3,61.2z
			 M-55.4,61.3c0,0.2,0.1,0.3,0.2,0.4c0.1,0.1,0.2,0.2,0.4,0.2s0.3-0.1,0.4-0.2c0.1-0.1,0.2-0.2,0.2-0.4l0,0c0-0.2-0.1-0.3-0.2-0.4
			c-0.1-0.1-0.2-0.2-0.4-0.2l0,0c-0.2,0-0.3,0.1-0.4,0.2C-55.3,61-55.4,61.1-55.4,61.3L-55.4,61.3z"/>
	</g>
	<g transform="matrix(-0.017, 1, -1, -0.017, 1375.566, 536.77)">
		<path d="M-37.3,50.6C-37.3,50.7-37.3,50.7-37.3,50.6c0,3.3-2.6,5.9-5.8,5.9c-1.6,0-3-0.6-4.1-1.7c-1.1-1.1-1.7-2.5-1.7-4.1
			c0-3.2,2.6-5.8,5.8-5.8l0,0C-39.9,44.9-37.3,47.5-37.3,50.6z M-44.9,50.8c0,0.5,0.2,0.9,0.5,1.3c0.3,0.3,0.8,0.5,1.3,0.5
			c1,0,1.8-0.8,1.8-1.8l0,0c0-1-0.8-1.8-1.8-1.8l0,0C-44.1,48.9-44.9,49.7-44.9,50.8L-44.9,50.8z"/>
	</g>
	<path d="M1316.3,515.8c-3.4,0-6.1-2.7-6.2-6.1v-24.2c-2.3-2.2-8.3-9.2-2.1-18.4c6.1-8.6,16.7-7.3,23.1-4.1c6.3-3.2,16.9-4.5,23,4.1
		c6.3,9.2,0.2,16.3-2.1,18.4v24.1c0,3.4-2.8,6.2-6.2,6.2h-0.1H1316.3C1316.4,515.8,1316.4,515.8,1316.3,515.8z M1321,464.5
		c-3.5,0-7.1,1.2-9.7,4.9c-5.3,7.7,1.2,13,2,13.6c0.5,0.4,0.8,1,0.8,1.6v25c0,1.2,1,2.2,2.2,2.2h29.5l0,0c1.2,0,2.2-1,2.2-2.2v-25
		c0-0.6,0.3-1.2,0.8-1.6c0.8-0.6,7.3-5.9,2-13.6c-5.3-7.4-14.6-4.8-18.8-2.4c-0.6,0.4-1.4,0.4-2,0
		C1328,465.7,1324.6,464.5,1321,464.5z"/>
</g>
</svg>
