<?xml version="1.0" encoding="utf-8"?>
<!-- Generator: Adobe Illustrator 25.4.1, SVG Export Plug-In . SVG Version: 6.00 Build 0)  -->
<svg version="1.1" id="Calque_1" xmlns="http://www.w3.org/2000/svg" xmlns:xlink="http://www.w3.org/1999/xlink" x="0px" y="0px"
	 viewBox="0 0 100 100" style="enable-background:new 0 0 100 100;" xml:space="preserve">
<g>
	<path d="M50,100c-2,0-4-0.5-5.8-1.5l-35-19.2C5.4,77.2,3,73.2,3,68.8V31.2c0-4.4,2.4-8.4,6.2-10.5l35-19.2c3.6-2,7.9-2,11.5,0
		l35,19.2c3.8,2.1,6.2,6.1,6.2,10.5v37.6c0,4.4-2.4,8.4-6.2,10.5l-35,19.2C54,99.5,52,100,50,100z M50,4c-1.3,0-2.6,0.3-3.9,1
		l-35,19.2c-2.6,1.4-4.1,4.1-4.1,7v37.6c0,2.9,1.6,5.6,4.1,7l35,19.2c2.4,1.3,5.3,1.3,7.7,0l35-19.2c2.6-1.4,4.2-4.1,4.2-7V31.2
		c0-2.9-1.6-5.6-4.2-7L53.8,5C52.6,4.3,51.3,4,50,4z"/>
</g>
<g>
	<path d="M56.7,78c-6.9,0-13.2-3.8-16.3-9.9c-0.5-1-0.1-2.2,0.9-2.7s2.2-0.1,2.7,0.9C46.4,71,51.3,74,56.7,74
		C64.6,74,71,67.7,71,59.9c0-3.3-1.2-6.5-3.3-9.1C67,50,67.1,48.7,67.9,48s2.1-0.6,2.8,0.2c2.8,3.3,4.3,7.4,4.3,11.7
		C75,69.9,66.8,78,56.7,78z"/>
	<g>
		<path d="M64.7,55.2c-0.7,0-1.4-0.4-1.8-1c-0.5-1-0.2-2.2,0.8-2.7C68.2,49,71,44.2,71,39.1C71,31.3,64.6,25,56.7,25
			c-6.3,0-12,4.2-13.7,10.2c-0.3,1.1-1.4,1.7-2.5,1.4s-1.7-1.4-1.4-2.5C41.4,26.4,48.6,21,56.7,21C66.8,21,75,29.1,75,39.1
			c0,6.6-3.6,12.6-9.4,15.8C65.3,55.1,65,55.2,64.7,55.2z"/>
		<path d="M39.3,68.8C29.2,68.8,21,60.6,21,50.7s8.2-18.1,18.3-18.1c2.7,0,5.4,0.6,7.9,1.8c1,0.5,1.4,1.7,1,2.7
			c-0.5,1-1.7,1.4-2.7,1c-1.9-0.9-4-1.4-6.1-1.4c-7.9,0-14.3,6.3-14.3,14.1s6.4,14.1,14.3,14.1c2.1,0,4.2-0.4,6.1-1.3
			c1-0.5,2.2,0,2.7,1c0.5,1,0,2.2-1,2.7C44.6,68.2,42,68.8,39.3,68.8z"/>
		<path d="M38.1,59.8c-4.9,0-9-4-9-8.9c0-1.1,0.9-2,2-2c1.1,0,2,0.9,2,2c0,2.7,2.2,4.9,5,4.9c1.1,0,2,0.9,2,2S39.2,59.8,38.1,59.8z"
			/>
	</g>
</g>
</svg>
