<?xml version="1.0" encoding="utf-8"?>
<!-- Generator: Adobe Illustrator 25.4.1, SVG Export Plug-In . SVG Version: 6.00 Build 0)  -->
<svg version="1.1" id="Calque_1" xmlns="http://www.w3.org/2000/svg" xmlns:xlink="http://www.w3.org/1999/xlink" x="0px" y="0px"
	 viewBox="0 0 100 100" style="enable-background:new 0 0 100 100;" xml:space="preserve">
<g>
	<path d="M50,100c-2,0-4-0.5-5.8-1.5l-35-19.2C5.4,77.2,3,73.2,3,68.8V31.2c0-4.4,2.4-8.4,6.2-10.5l35-19.2c3.6-2,7.9-2,11.5,0
		l35,19.2c3.8,2.1,6.2,6.1,6.2,10.5v37.6c0,4.4-2.4,8.4-6.2,10.5l-35,19.2C54,99.5,52,100,50,100z M50,4c-1.3,0-2.6,0.3-3.9,1
		l-35,19.2c-2.6,1.4-4.1,4.1-4.1,7v37.6c0,2.9,1.6,5.6,4.1,7l35,19.2c2.4,1.3,5.3,1.3,7.7,0l35-19.2c2.6-1.4,4.2-4.1,4.2-7V31.2
		c0-2.9-1.6-5.6-4.2-7L53.8,5C52.6,4.3,51.3,4,50,4z"/>
</g>
<path d="M49.9,49.4c-2.6,0-4.8-0.9-6.2-2.5c-1-1.2-2.2-3.3-1.7-6.8c0.6-4.9,5.8-11.6,6.4-12.3c0.4-0.5,0.9-0.8,1.6-0.8
	c0.6,0,1.2,0.3,1.6,0.7c0.2,0.3,5.6,7,6.4,12.3l0,0c0.5,3.5-0.6,5.7-1.6,6.8C54.9,48.5,52.7,49.4,49.9,49.4z M50,32.3
	c-1.6,2.4-3.7,5.9-4,8.2c-0.1,1.1-0.1,2.6,0.8,3.7c0.8,1,2.2,1.2,3.2,1.2c1.1,0,2.5-0.2,3.3-1.1c0.8-1,0.8-2.5,0.7-3.6l0,0
	C53.6,38,51.6,34.6,50,32.3z"/>
<path d="M43.6,72.4c-0.4,0-0.9,0-1.3-0.1c-2.2-0.4-4.3-1.8-6-4c-3.1-4.1-4.1-12.1-4.2-13.1c-0.1-0.6,0.2-1.3,0.6-1.7
	c0.5-0.4,1.1-0.6,1.8-0.5c0.4,0.1,9.3,2,13.7,5.5l0,0c2.5,2,3.8,4.2,3.7,6.5c0,1.4-0.6,3.5-3.1,5.5C47.1,71.8,45.4,72.4,43.6,72.4z
	 M36.5,57.7c0.5,2.7,1.5,6.3,3,8.2c1.1,1.4,2.3,2.3,3.5,2.5c1.4,0.2,2.6-0.4,3.3-1c0.7-0.5,1.5-1.4,1.5-2.3c0-1-0.8-2.1-2.3-3.3l0,0
	C43.3,59.9,39.2,58.5,36.5,57.7z"/>
<path d="M56.4,72.4c-1.8,0-3.5-0.6-5.1-1.8c-2.5-1.9-3.1-4.1-3.1-5.5c0-2.3,1.2-4.5,3.7-6.5l0,0c4.4-3.5,13.3-5.5,13.7-5.5
	c0.6-0.1,1.3,0,1.8,0.5c0.5,0.4,0.7,1.1,0.6,1.7c-0.1,0.9-1.1,9-4.2,13.1c-1.7,2.2-3.8,3.6-6,4C57.3,72.3,56.8,72.4,56.4,72.4z
	 M63.5,57.7c-2.8,0.8-6.8,2.2-9.1,4l0,0c-1.5,1.2-2.3,2.4-2.3,3.3c0,1,0.8,1.8,1.5,2.3c1.1,0.8,2.2,1.2,3.3,1
	c1.2-0.2,2.5-1.1,3.5-2.5C62,63.9,63,60.4,63.5,57.7z M53.2,60.1L53.2,60.1L53.2,60.1z"/>
<path d="M43.6,85.2c-0.4,0-0.9,0-1.3-0.1c-2.2-0.4-4.3-1.8-6-4C33.1,77,32.1,69,32,68.1c-0.1-0.6,0.2-1.3,0.6-1.7
	c0.5-0.4,1.1-0.6,1.8-0.5c0.4,0.1,9.3,2,13.7,5.5l0,0c2.5,2,3.8,4.2,3.7,6.5c0,1.4-0.6,3.5-3.1,5.5C47.1,84.6,45.4,85.2,43.6,85.2z
	 M36.5,70.5c0.5,2.7,1.5,6.3,3,8.2c1.1,1.4,2.3,2.3,3.5,2.5c1.4,0.2,2.6-0.4,3.3-1c0.7-0.5,1.5-1.4,1.5-2.3c0-1-0.8-2.1-2.3-3.3l0,0
	C43.3,72.7,39.2,71.3,36.5,70.5z"/>
<path d="M56.4,85.2c-1.8,0-3.5-0.6-5.1-1.8c-2.5-1.9-3.1-4.1-3.1-5.5c0-2.3,1.2-4.5,3.7-6.5l0,0c4.4-3.5,13.3-5.5,13.7-5.5
	c0.6-0.1,1.3,0,1.8,0.5c0.5,0.4,0.7,1.1,0.6,1.7c-0.1,0.9-1.1,9-4.2,13.1c-1.7,2.2-3.8,3.6-6,4C57.3,85.2,56.8,85.2,56.4,85.2z
	 M63.5,70.5c-2.8,0.8-6.8,2.2-9.1,4l0,0c-1.5,1.2-2.3,2.4-2.3,3.3c0,1,0.8,1.8,1.5,2.3c1.1,0.8,2.2,1.2,3.3,1
	c1.2-0.2,2.5-1.1,3.5-2.5C62,76.8,63,73.3,63.5,70.5z M53.2,73L53.2,73L53.2,73z"/>
<path d="M43.6,59.5c-0.4,0-0.9,0-1.3-0.1c-2.2-0.4-4.3-1.8-6-4c-3.1-4.1-4.1-12.1-4.2-13.1c-0.1-0.6,0.2-1.3,0.6-1.7
	c0.5-0.4,1.1-0.6,1.8-0.5c0.4,0.1,9.3,2,13.7,5.5l0,0c2.5,2,3.8,4.2,3.7,6.5c0,1.4-0.6,3.5-3.1,5.5C47.1,58.9,45.4,59.5,43.6,59.5z
	 M36.5,44.8c0.5,2.7,1.5,6.3,3,8.2c1.1,1.4,2.3,2.3,3.5,2.5c1.4,0.2,2.6-0.4,3.3-1c0.7-0.5,1.5-1.4,1.5-2.3c0-1-0.8-2.1-2.3-3.3l0,0
	C43.3,47,39.2,45.6,36.5,44.8z"/>
<path d="M56.4,59.5c-1.8,0-3.5-0.6-5.1-1.8c-2.5-1.9-3.1-4.1-3.1-5.5c0-2.3,1.2-4.5,3.7-6.5l0,0c4.4-3.5,13.3-5.5,13.7-5.5
	c0.6-0.1,1.3,0,1.8,0.5c0.5,0.4,0.7,1.1,0.6,1.7c-0.1,0.9-1.1,9-4.2,13.1c-1.7,2.2-3.8,3.6-6,4C57.3,59.5,56.8,59.5,56.4,59.5z
	 M63.5,44.8c-2.8,0.8-6.8,2.2-9.1,4l0,0c-1.5,1.2-2.3,2.4-2.3,3.3c0,1,0.8,1.8,1.5,2.3c1.1,0.8,2.2,1.2,3.3,1
	c1.2-0.2,2.5-1.1,3.5-2.5C62,51.1,63,47.5,63.5,44.8z M53.2,47.3L53.2,47.3L53.2,47.3z"/>
<path d="M50,99.2c-1.1,0-2-0.9-2-2V48.8c0-1.1,0.9-2,2-2s2,0.9,2,2v48.4C52,98.3,51.1,99.2,50,99.2z"/>
<polygon points="50,61.6 55.1,57.9 49.9,53.9 44.9,57.9 "/>
<polygon points="50,74.3 55.1,70.5 49.9,66.5 44.9,70.5 "/>
<path d="M34,43.9c-1.1,0-2-0.9-2-2V26.1c0-1.1,0.9-2,2-2s2,0.9,2,2V42C36,43.1,35.1,43.9,34,43.9z"/>
<path d="M42,44.7c-1.1,0-2-0.9-2-2V21.3c0-1.1,0.9-2,2-2s2,0.9,2,2v21.3C44,43.8,43.1,44.7,42,44.7z"/>
<path d="M58,44.7c-1.1,0-2-0.9-2-2V21.3c0-1.1,0.9-2,2-2s2,0.9,2,2v21.3C60,43.8,59.1,44.7,58,44.7z"/>
<path d="M50,32.2c-1.1,0-2-0.9-2-2V15.8c0-1.1,0.9-2,2-2s2,0.9,2,2v14.4C52,31.3,51.1,32.2,50,32.2z"/>
<path d="M66,43.9c-1.1,0-2-0.9-2-2V26.1c0-1.1,0.9-2,2-2s2,0.9,2,2V42C68,43.1,67.1,43.9,66,43.9z"/>
</svg>
