<?xml version="1.0" encoding="utf-8"?>
<!-- Generator: Adobe Illustrator 25.4.1, SVG Export Plug-In . SVG Version: 6.00 Build 0)  -->
<svg version="1.1" id="Calque_1" xmlns="http://www.w3.org/2000/svg" xmlns:xlink="http://www.w3.org/1999/xlink" x="0px" y="0px"
	 viewBox="0 0 93.9 100" style="enable-background:new 0 0 93.9 100;" xml:space="preserve">
<g>
	<path d="M47,100c-2,0-4-0.5-5.8-1.5l-35-19.2C2.4,77.2,0,73.2,0,68.8V31.2c0-4.4,2.4-8.4,6.2-10.5l35-19.2c3.6-2,7.9-2,11.5,0
		l35,19.2c3.8,2.1,6.2,6.1,6.2,10.5v37.6c0,4.4-2.4,8.4-6.2,10.5l-35,19.2C51,99.5,49,100,47,100z M47,4c-1.3,0-2.6,0.3-3.9,1
		l-35,19.2c-2.6,1.4-4.1,4.1-4.1,7v37.6c0,2.9,1.6,5.6,4.1,7l35,19.2c2.4,1.3,5.3,1.3,7.7,0l35-19.2c2.6-1.4,4.2-4.1,4.2-7V31.2
		c0-2.9-1.6-5.6-4.2-7L50.8,5C49.6,4.3,48.3,4,47,4z"/>
</g>
<g>
	<g>
		<path d="M72.8,41.7c-0.3,0-0.5-0.1-0.8-0.2c-9.9-4-21.7-8.2-24.1-8.1l0,0c-1.7,0.8-2.8-0.1-3.2-0.7c-1.6-2.7,4.3-8.5,5.9-9.5
			c3.5-2.3,5.9-2.3,9.3-1.7c2.8,0.5,16.8,5.3,21.3,6.8c0.7,0.2,1.3,0.8,1.4,1.5c0.1,0.6,0,1.3-0.5,1.8L74.4,41
			C74,41.4,73.4,41.7,72.8,41.7z M49.7,29.7c3.2,0.5,9.6,2.3,22.4,7.5h0.1l5-5.9v-0.1c-8.1-2.8-16.3-5.4-17.9-5.7
			c-2.5-0.5-3.9-0.5-6.4,1.1l0,0C51.6,27.5,50.6,28.5,49.7,29.7L49.7,29.7z"/>
		<path d="M56.4,61.3c-0.3,0-0.5-0.1-0.8-0.1c-9.7-4-21.4-8.1-24-8.1h-0.1c-1.7,0.8-2.8-0.1-3.2-0.7c-1.6-2.7,4.3-8.5,5.9-9.5
			c3.5-2.3,5.9-2.3,9.3-1.7c2.7,0.5,16.8,5.3,21.3,6.8c0.7,0.2,1.3,0.8,1.4,1.5c0.1,0.6,0,1.3-0.5,1.8l-7.9,9.4
			C57.5,61.1,57,61.3,56.4,61.3z M33.4,49.4c3.3,0.6,9.6,2.4,22.3,7.5h0.1l5-5.9v-0.1c-8.1-2.8-16.3-5.4-17.9-5.7
			c-2.5-0.5-3.9-0.5-6.4,1.1l0,0c-1.1,0.8-2.2,1.9-3,3C33.3,49.3,33.3,49.4,33.4,49.4z M31.7,53L31.7,53L31.7,53z"/>
		<path d="M41.5,79c-0.3,0-0.5-0.1-0.8-0.2c-9.7-4-21.4-8.1-24-8.1h-0.1c-2-0.1-2.8-0.1-3.2-0.7c-1.6-2.7,4.3-8.5,5.9-9.5
			c3.5-2.3,5.9-2.3,9.3-1.7c2.9,0.5,18.2,5.7,21.3,6.8l0,0l0,0l0,0l0,0c1.1,0.4,1.6,1.5,1.2,2.6c-0.1,0.2-0.2,0.4-0.3,0.6L43,78.3
			C42.6,78.8,42.1,79,41.5,79z M18.4,67.1c3.2,0.5,9.6,2.3,22.4,7.5h0.1l5-5.9v-0.1c-6.8-2.3-16.1-5.4-17.9-5.7
			c-2.5-0.5-3.9-0.5-6.4,1.1l0,0C20.3,64.9,19.3,65.9,18.4,67.1L18.4,67.1z"/>
		<path d="M56.1,35.1l3.5-1.5h0.1L66,48.9c0.2,0.4,0,0.9-0.4,1l-2.9,1.2c0,0-0.4-0.8-0.4-0.9l-6.2-15C56,35.2,56,35.1,56.1,35.1z"/>
		<path d="M41.5,53.6L43,53c1.1-0.5,2.5,0.1,2.9,1.2l5.2,12.4c0.2,0.4,0,0.8-0.4,1l-2.9,1.2h-0.1l-6.2-15
			C41.4,53.7,41.4,53.6,41.5,53.6z"/>
		<path d="M45.4,30.9l2.1-0.1c0.5,0,1,0.4,1,0.9l0.6,10.8c0,0.5-0.4,1-0.9,1l-2.1,0.1c-0.5,0-1-0.4-1-0.9L44.5,32
			C44.5,31.4,44.9,31,45.4,30.9z"/>
		<path d="M29.1,50.6l2.8-0.1c0,0,0.1,0,0.1,0.1L32.7,63c0,0,0,0.1-0.1,0.1l-2.1,0.1c-1,0.1-1.9-0.7-1.9-1.7l-0.5-9.8
			C28,51.1,28.5,50.6,29.1,50.6z"/>
	</g>
</g>
</svg>
