<?xml version="1.0" encoding="utf-8"?>
<!-- Generator: Adobe Illustrator 25.4.1, SVG Export Plug-In . SVG Version: 6.00 Build 0)  -->
<svg version="1.1" id="Calque_1" xmlns="http://www.w3.org/2000/svg" xmlns:xlink="http://www.w3.org/1999/xlink" x="0px" y="0px"
	 viewBox="0 0 100 100.1" style="enable-background:new 0 0 100 100.1;" xml:space="preserve">
<path d="M50.1,100.1c-2,0-4-0.5-5.8-1.5l-35-19.2c-3.8-2.1-6.2-6.1-6.2-10.5V42.1c0-1.1,0.9-2,2-2s2,0.9,2,2v26.8
	c0,2.9,1.6,5.6,4.1,7l35,19.2c2.4,1.3,5.3,1.3,7.7,0l35-19.2c2.6-1.4,4.2-4.1,4.2-7V31.3c0-2.9-1.6-5.6-4.2-7l-35-19.2
	c-2.4-1.3-5.3-1.3-7.7,0L33,12.6c-1,0.5-2.2,0.2-2.7-0.7c-0.5-1-0.2-2.2,0.7-2.7l13.3-7.6c3.6-2,8-2,11.6,0l35,19.2
	c3.8,2.1,6.2,6.1,6.2,10.5v37.6c0,4.4-2.4,8.4-6.2,10.5l-35,19.2C54.1,99.6,52.1,100.1,50.1,100.1z"/>
<path d="M36,52.4c-0.5,0-1-0.2-1.3-0.5c-0.8-0.7-0.9-2-0.1-2.8l8.6-9.5c0.7-0.8,2-0.9,2.8-0.1c0.8,0.7,0.9,2,0.1,2.8l-8.6,9.5
	C37.1,52.2,36.6,52.4,36,52.4z"/>
<path d="M38.1,50.2c-0.5,0-1-0.2-1.3-0.5l-7.8-7.1L11.9,38c-1.3-0.4-2.4-1.2-3.1-2.4S8,33,8.3,31.7c0.2-0.8,0.6-1.5,1.1-2.1
	l11.7-12.9c0.9-1,2.2-1.6,3.5-1.7c1.4-0.1,2.7,0.4,3.7,1.3c0.6,0.5,1.1,1.2,1.3,2l6.3,16.4l7.8,7.1c0.8,0.7,0.9,2,0.1,2.8
	s-2,0.9-2.8,0.1L33,37.3c-0.2-0.2-0.4-0.5-0.5-0.8L26,19.7c-0.1-0.2-0.2-0.3-0.3-0.4c-0.2-0.2-0.5-0.3-0.8-0.3
	c-0.3,0-0.6,0.1-0.8,0.4L12.5,32.2c-0.1,0.1-0.2,0.3-0.3,0.5c-0.1,0.3,0,0.6,0.1,0.9c0.1,0.3,0.4,0.5,0.7,0.5l17.4,4.7
	c0.3,0.1,0.6,0.2,0.8,0.4l8.2,7.4c0.8,0.7,0.9,2,0.1,2.8C39.2,50,38.6,50.2,38.1,50.2z"/>
<path d="M24.5,40.3c-0.5,0-1-0.2-1.3-0.5c-0.8-0.7-0.9-2-0.1-2.8c0.8-0.9,0.9-1.7,1.1-2.9c0.2-1.4,0.4-3,1.9-4.6
	c2.2-2.3,4.8-2.1,5.8-2.1l0,0c0.6-0.1,1.2,0.1,1.6,0.5c0.8,0.7,0.9,2,0.1,2.8c-0.7,0.8-1.6,0.7-2.1,0.7c-0.9-0.1-1.8-0.1-2.6,0.8
	c-0.5,0.5-0.6,1.2-0.8,2.3c-0.2,1.4-0.4,3.3-2.1,5.1C25.6,40.1,25,40.3,24.5,40.3z M30.5,28.1L30.5,28.1L30.5,28.1z M30.5,28.1
	L30.5,28.1C30.5,28.1,30.5,28.1,30.5,28.1z"/>
<circle cx="47.4" cy="46.2" r="2"/>
<circle cx="51.8" cy="51" r="2"/>
<circle cx="43.9" cy="53.6" r="2"/>
<path d="M51.1,85.1c-13.2,0-24.1-10.7-24.3-23.9c0-1.1,0.9-2,2-2c1.1,0,2,0.9,2,2c0.2,11,9.3,19.9,20.3,19.9
	c11,0,20.1-8.9,20.3-19.9c0-1.1,0.9-2,2-2c1.1,0,2,0.9,2,2C75.2,74.4,64.2,85.1,51.1,85.1z"/>
<path d="M73.4,63.2H28.8c-1.1,0-2-0.9-2-2s0.9-2,2-2h44.6c1.1,0,2,0.9,2,2S74.5,63.2,73.4,63.2z"/>
</svg>
