<?xml version="1.0" encoding="utf-8"?>
<!-- Generator: Adobe Illustrator 25.4.1, SVG Export Plug-In . SVG Version: 6.00 Build 0)  -->
<svg version="1.1" id="Calque_1" xmlns="http://www.w3.org/2000/svg" xmlns:xlink="http://www.w3.org/1999/xlink" x="0px" y="0px"
	 viewBox="0 0 94 100" style="enable-background:new 0 0 94 100;" xml:space="preserve">
<g>
	<path d="M47,100c-2,0-4-0.5-5.8-1.5l-35-19.2C2.4,77.2,0,73.2,0,68.8V31.2c0-4.4,2.4-8.4,6.2-10.5l35-19.2c3.6-2,7.9-2,11.5,0
		l35,19.2c3.8,2.1,6.2,6.1,6.2,10.5v37.6c0,4.4-2.4,8.4-6.2,10.5l-35,19.2C51,99.5,49,100,47,100z M47,4c-1.3,0-2.6,0.3-3.9,1
		l-35,19.2c-2.6,1.4-4.1,4.1-4.1,7v37.6c0,2.9,1.6,5.6,4.1,7l35,19.2c2.4,1.3,5.3,1.3,7.7,0l35-19.2c2.6-1.4,4.2-4.1,4.2-7V31.2
		c0-2.9-1.6-5.6-4.2-7L50.8,5C49.6,4.3,48.3,4,47,4z"/>
</g>
<path d="M92,72c-1.1,0-2-0.9-2-2c0-2.3-4.8-5.8-15.5-8.2c-1.1-0.2-1.8-1.3-1.5-2.4c0.2-1.1,1.3-1.8,2.4-1.5C83.9,59.8,94,63.5,94,70
	C94,71.1,93.1,72,92,72z"/>
<path d="M2.9,69.4c-0.4,0-0.8-0.1-1.2-0.4c-0.9-0.6-1.1-1.9-0.5-2.8c2.9-4.1,10.5-6.7,16.3-8.1c1.1-0.3,2.2,0.4,2.4,1.5
	c0.3,1.1-0.4,2.2-1.5,2.4c-7.1,1.7-12.2,4.1-13.9,6.5C4.1,69.1,3.5,69.4,2.9,69.4z"/>
<path d="M47,80.5c-1.1,0-2-0.9-2-2s0.9-2,2-2c19.2,0,28.6-3.9,29.1-5.4l0,0c0,0-0.6-1.1-4.7-2.4c-1.1-0.3-1.6-1.5-1.3-2.5
	c0.3-1.1,1.5-1.6,2.5-1.3c5.1,1.6,7.5,3.7,7.5,6.3C80.1,78.6,59.3,80.5,47,80.5z"/>
<path d="M30.4,77.8c-0.1,0-0.1,0-0.2,0c-6.5-0.5-14.3-2-14.3-6.1c0-2.5,2.8-4.3,8.6-5.4c1.1-0.2,2.1,0.5,2.3,1.6
	c0.2,1.1-0.5,2.1-1.6,2.3c-2.6,0.5-4.1,1-4.8,1.4c1.3,0.7,4.5,1.6,10.1,2.1c1.1,0.1,1.9,1.1,1.8,2.2C32.3,77,31.4,77.8,30.4,77.8z"
	/>
<g>
	<path d="M52.7,72c-6.9,0-13.2-3.8-16.3-9.9c-0.5-1-0.1-2.2,0.9-2.7s2.2-0.1,2.7,0.9C42.4,65,47.3,68,52.7,68
		C60.6,68,67,61.7,67,53.9c0-3.3-1.2-6.5-3.3-9.1C63,44,63.1,42.7,63.9,42s2.1-0.6,2.8,0.2c2.8,3.3,4.3,7.4,4.3,11.7
		C71,63.9,62.8,72,52.7,72z"/>
	<g>
		<path d="M60.7,49.2c-0.7,0-1.4-0.4-1.8-1c-0.5-1-0.2-2.2,0.8-2.7C64.2,43,67,38.2,67,33.1C67,25.3,60.6,19,52.7,19
			c-6.3,0-12,4.2-13.7,10.2c-0.3,1.1-1.4,1.7-2.5,1.4c-1.1-0.3-1.7-1.4-1.4-2.5C37.4,20.4,44.6,15,52.7,15C62.8,15,71,23.1,71,33.1
			c0,6.6-3.6,12.6-9.4,15.8C61.3,49.1,61,49.2,60.7,49.2z"/>
		<path d="M35.3,62.8C25.2,62.8,17,54.6,17,44.7s8.2-18.1,18.3-18.1c2.7,0,5.4,0.6,7.9,1.8c1,0.5,1.4,1.7,1,2.7
			c-0.5,1-1.7,1.4-2.7,1c-1.9-0.9-4-1.4-6.1-1.4c-7.9,0-14.3,6.3-14.3,14.1s6.4,14.1,14.3,14.1c2.1,0,4.2-0.4,6.1-1.3
			c1-0.5,2.2,0,2.7,1s0,2.2-1,2.7C40.6,62.2,38,62.8,35.3,62.8z"/>
		<path d="M34.1,53.8c-4.9,0-9-4-9-8.9c0-1.1,0.9-2,2-2s2,0.9,2,2c0,2.7,2.2,4.9,5,4.9c1.1,0,2,0.9,2,2S35.2,53.8,34.1,53.8z"/>
	</g>
</g>
</svg>
