<?xml version="1.0" encoding="utf-8"?>
<!-- Generator: Adobe Illustrator 25.4.1, SVG Export Plug-In . SVG Version: 6.00 Build 0)  -->
<svg version="1.1" id="Calque_1" xmlns="http://www.w3.org/2000/svg" xmlns:xlink="http://www.w3.org/1999/xlink" x="0px" y="0px"
	 viewBox="0 0 93.9 100" style="enable-background:new 0 0 93.9 100;" xml:space="preserve">
<g>
	<path d="M47,100c-2,0-4-0.5-5.8-1.5l-35-19.2C2.4,77.2,0,73.2,0,68.8V31.2c0-4.4,2.4-8.4,6.2-10.5l35-19.2c3.6-2,7.9-2,11.5,0
		l35,19.2c3.8,2.1,6.2,6.1,6.2,10.5v37.6c0,4.4-2.4,8.4-6.2,10.5l-35,19.2C51,99.5,49,100,47,100z M47,4c-1.3,0-2.6,0.3-3.9,1
		l-35,19.2c-2.6,1.4-4.1,4.1-4.1,7v37.6c0,2.9,1.6,5.6,4.1,7l35,19.2c2.4,1.3,5.3,1.3,7.7,0l35-19.2c2.6-1.4,4.2-4.1,4.2-7V31.2
		c0-2.9-1.6-5.6-4.2-7L50.8,5C49.6,4.3,48.3,4,47,4z"/>
</g>
<g transform="translate(-2489 -5984.792)">
	<path d="M2536.3,6084.6c-2,0-4-0.5-5.8-1.5l-35-19.2c-3.8-2.1-6.2-6.1-6.2-10.5v-37.6c0-4.4,2.4-8.4,6.2-10.5l35-19.2
		c3.6-2,7.9-2,11.5,0l35,19.2c3.8,2.1,6.2,6.1,6.2,10.5v37.6c0,4.4-2.4,8.4-6.2,10.5l-35,19.2
		C2540.3,6084.1,2538.3,6084.6,2536.3,6084.6z M2536.3,5988.6c-1.3,0-2.6,0.3-3.9,1l-35,19.2c-2.6,1.4-4.1,4.1-4.2,7v37.6
		c0,2.9,1.6,5.6,4.2,7l35,19.2c2.4,1.3,5.3,1.3,7.7,0l35-19.2c2.6-1.4,4.2-4.1,4.2-7v-37.6c0-2.9-1.6-5.6-4.2-7l-35-19.2
		C2539,5989,2537.7,5988.6,2536.3,5988.6z"/>
	<g transform="translate(2593.5 6088.498)">
		<path d="M-48.2-40.7c-1,0.6-2.2,0.2-2.7-0.7c-0.6-0.9-0.2-2.1,0.7-2.7l0,0l0,0c1-0.6,2.2-0.2,2.7,0.7
			C-46.9-42.4-47.2-41.2-48.2-40.7z"/>
		<path d="M-48.2-32.7c-1,0.6-2.2,0.2-2.7-0.7c-0.6-0.9-0.2-2.1,0.7-2.7l0,0l0,0c1-0.6,2.2-0.2,2.7,0.7
			C-46.9-34.4-47.2-33.2-48.2-32.7z"/>
		<path d="M-42.1-44.2c-1,0.6-2.2,0.2-2.7-0.7c-0.6-0.9-0.2-2.1,0.7-2.7l0,0l0,0c1-0.6,2.2-0.2,2.7,0.7
			C-40.8-45.9-41.2-44.7-42.1-44.2z"/>
		<path d="M-42.1-36.2c-1,0.6-2.2,0.2-2.7-0.7c-0.6-0.9-0.2-2.1,0.7-2.7l0,0l0,0c1-0.6,2.2-0.2,2.7,0.7
			C-40.8-37.9-41.2-36.7-42.1-36.2z"/>
		<path d="M-36.1-47.7c-1,0.6-2.2,0.2-2.7-0.7c-0.6-0.9-0.2-2.1,0.7-2.7l0,0l0,0c1-0.6,2.2-0.2,2.7,0.7
			C-34.8-49.4-35.1-48.2-36.1-47.7z"/>
		<path d="M-36.1-39.7c-1,0.6-2.2,0.2-2.7-0.7c-0.6-0.9-0.2-2.1,0.7-2.7l0,0l0,0c1-0.6,2.2-0.2,2.7,0.7
			C-34.8-41.4-35.1-40.2-36.1-39.7z"/>
	</g>
	<g transform="translate(2537.414 6088.499)">
		<path d="M-10-40.7c1,0.6,2.2,0.2,2.7-0.7c0.6-0.9,0.2-2.1-0.7-2.7l0,0l0,0c-1-0.6-2.2-0.2-2.7,0.7S-11-41.2-10-40.7z"/>
		<path d="M-10-32.7c1,0.6,2.2,0.2,2.7-0.7c0.6-0.9,0.2-2.1-0.7-2.7l0,0l0,0c-1-0.6-2.2-0.2-2.7,0.7S-11-33.2-10-32.7z"/>
		<path d="M-16.1-44.2c1,0.6,2.2,0.2,2.7-0.7c0.6-0.9,0.2-2.1-0.7-2.7l0,0l0,0c-1-0.6-2.2-0.2-2.7,0.7C-17.4-45.9-17-44.7-16.1-44.2
			z"/>
		<path d="M-16.1-36.2c1,0.6,2.2,0.2,2.7-0.7c0.6-0.9,0.2-2.1-0.7-2.7l0,0l0,0c-1-0.6-2.2-0.2-2.7,0.7C-17.4-37.9-17-36.7-16.1-36.2
			z"/>
		<path d="M-22.1-47.7c1,0.6,2.2,0.2,2.7-0.7c0.6-0.9,0.2-2.1-0.7-2.7l0,0l0,0c-1-0.6-2.2-0.2-2.7,0.7S-23.1-48.2-22.1-47.7z"/>
		<path d="M-22.1-39.7c1,0.6,2.2,0.2,2.7-0.7c0.6-0.9,0.2-2.1-0.7-2.7l0,0l0,0c-1-0.6-2.2-0.2-2.7,0.7S-23.1-40.2-22.1-39.7z"/>
	</g>
	<g transform="translate(2527.33 6027.263)">
		<g transform="translate(0.941 55.407)">
			<path d="M7.8-18.3c-1.1,0-2-0.9-2-2v-28.9c0-1.1,0.9-2,2-2s2,0.9,2,2v28.9C9.8-19.2,8.9-18.3,7.8-18.3z"/>
			<path d="M8.3-14.9"/>
			<path d="M35.4-30.5"/>
			<path d="M7.8-14.9"/>
			<path d="M-19.3-30.5"/>
		</g>
		<path d="M9,39.5c-2.6,0-5.2-0.6-7.5-1.9l-13.7-7.5c-5.3-3-8.6-8.6-8.6-14.7V0.6c0-6.1,3.2-11.7,8.5-14.7l13.8-7.5
			c4.7-2.6,10.4-2.6,15.1,0l13.7,7.5c5.3,3,8.6,8.6,8.6,14.7v14.7c0,6.1-3.2,11.7-8.5,14.7l-13.8,7.5C14.2,38.9,11.6,39.5,9,39.5z
			 M9-19.5c-1.9,0-3.9,0.5-5.6,1.4l-13.7,7.5c-4,2.3-6.5,6.5-6.5,11.2v14.8c0,4.6,2.5,8.9,6.5,11.2l13.7,7.5c3.5,1.9,7.7,1.9,11.2,0
			l13.7-7.5c4-2.3,6.5-6.5,6.5-11.2l0,0V0.6c0-4.6-2.5-8.9-6.5-11.2l-13.7-7.5C12.9-19,10.9-19.5,9-19.5z M38.8,15.4L38.8,15.4
			L38.8,15.4z"/>
		<path d="M8.6,7.6C6,7.6,3.4,7,1.1,5.7l-19-10c-1-0.5-1.4-1.7-0.8-2.7c0.6-1,1.7-1.4,2.7-0.8l19,10c3.5,1.9,7.8,1.9,11.3,0L27.9-5
			c1.8-0.9,3.3-2.3,4.4-4c0.6-0.9,1.8-1.2,2.8-0.6s1.2,1.8,0.6,2.8c-1.5,2.3-3.5,4.1-5.9,5.4L16.1,5.7C13.7,7,11.1,7.6,8.6,7.6z"/>
	</g>
</g>
</svg>
